<svg width="20" height="20" viewBox="0 0 20 20" fill="none" xmlns="http://www.w3.org/2000/svg">
<path d="M12.9571 20H7.04286C1.44786 20 0 18.5521 0 12.9571V7.04286C0 1.44786 1.44786 0 7.04286 0H12.9564C18.5521 0 20 1.44786 20 7.04286V12.9571C20 18.5521 18.5521 20 12.9571 20ZM7.04286 0.714286C1.83786 0.714286 0.714286 1.83786 0.714286 7.04286V12.9571C0.714286 18.1621 1.83786 19.2857 7.04286 19.2857H12.9564C18.1614 19.2857 19.285 18.1621 19.285 12.9571V7.04286C19.2857 1.83786 18.1621 0.714286 12.9571 0.714286H7.04286Z" fill="#C32428"/>
<path d="M9.99961 10.667C7.61046 10.667 5.66661 8.72295 5.66661 6.33351C5.66661 3.94408 7.61046 2 9.99961 2C12.3888 2 14.3326 3.94408 14.3326 6.33351C14.3326 8.72295 12.3888 10.667 9.99961 10.667ZM9.99961 2.66669C7.97843 2.66669 6.33323 4.31143 6.33323 6.33351C6.33323 8.3556 7.97843 10.0003 9.99961 10.0003C12.0208 10.0003 13.666 8.3556 13.666 6.33351C13.666 4.31143 12.0208 2.66669 9.99961 2.66669Z" fill="#C32428"/>
<path d="M9.99961 8.66694C8.71304 8.66694 7.66646 7.62023 7.66646 6.33351C7.66646 5.04679 8.71304 4.00008 9.99961 4.00008C11.2862 4.00008 12.3328 5.04679 12.3328 6.33351C12.3328 7.62023 11.2862 8.66694 9.99961 8.66694ZM9.99961 4.66678C9.08034 4.66678 8.33307 5.41481 8.33307 6.33351C8.33307 7.25222 9.08034 8.00025 9.99961 8.00025C10.9189 8.00025 11.6661 7.25222 11.6661 6.33351C11.6661 5.41481 10.9189 4.66678 9.99961 4.66678ZM12.9994 18C12.8243 18.0003 12.6509 17.966 12.4892 17.8991C12.3274 17.8321 12.1805 17.7339 12.0568 17.61L9.99961 15.4799L7.94643 17.6053C7.76035 17.7925 7.52292 17.9203 7.2642 17.9725C7.00547 18.0246 6.73709 17.9989 6.49301 17.8985C6.24893 17.798 6.04012 17.6274 5.89301 17.4083C5.74591 17.1891 5.66712 16.9312 5.66661 16.6673C5.66661 16.3106 5.80527 15.9759 6.05725 15.7246L8.07109 13.7532C7.94937 13.7227 7.82845 13.6891 7.70845 13.6525C7.01653 13.4354 6.35875 13.1216 5.75461 12.7204C5.52292 12.5673 5.33275 12.3592 5.20108 12.1147C5.0694 11.8701 5.00032 11.5968 5 11.3191C5 10.8404 5.25331 10.4284 5.67728 10.2157C5.88932 10.1097 6.12681 10.0653 6.36281 10.0875C6.59881 10.1096 6.82388 10.1974 7.01251 10.341C8.74904 11.6397 11.2502 11.6397 12.9874 10.341C13.1761 10.1976 13.4011 10.1098 13.6371 10.0877C13.8731 10.0655 14.1105 10.1099 14.3226 10.2157C14.5284 10.3165 14.7014 10.4737 14.8213 10.6691C14.9412 10.8644 15.0031 11.0899 14.9999 11.3191C14.9999 11.8824 14.7172 12.4064 14.2446 12.7204C13.6411 13.1214 12.984 13.4349 12.2928 13.6518C12.1748 13.6885 12.0534 13.7218 11.9281 13.7532L13.94 15.7219C14.1946 15.9759 14.3333 16.3106 14.3333 16.6673C14.3334 16.8425 14.299 17.0159 14.2321 17.1778C14.1651 17.3397 14.0668 17.4867 13.9429 17.6105C13.819 17.7343 13.6718 17.8325 13.5099 17.8993C13.348 17.9661 13.1745 18.0003 12.9994 18ZM9.99961 14.6672C10.0903 14.6672 10.1769 14.7039 10.2389 14.7692L12.5314 17.1433C12.7761 17.3866 13.2174 17.3913 13.47 17.1393C13.5321 17.0775 13.5814 17.0041 13.6151 16.9232C13.6487 16.8423 13.666 16.7556 13.666 16.6679C13.666 16.5803 13.6487 16.4936 13.6151 16.4127C13.5814 16.3318 13.5321 16.2584 13.47 16.1966L11.0149 13.7945C10.9705 13.7517 10.9389 13.6975 10.9236 13.6378C10.9084 13.5782 10.91 13.5154 10.9283 13.4566C10.9466 13.3978 10.981 13.3453 11.0274 13.3049C11.0739 13.2645 11.1307 13.2378 11.1915 13.2278C11.5115 13.1725 11.8161 13.1011 12.0941 13.0158C12.7246 12.8176 13.324 12.5314 13.8746 12.1658C14.1606 11.9757 14.3319 11.6597 14.3319 11.3197C14.3344 11.2144 14.3065 11.1106 14.2517 11.0207C14.1968 10.9307 14.1173 10.8584 14.0226 10.8124C13.9214 10.7617 13.8079 10.7407 13.6953 10.7518C13.5826 10.7629 13.4754 10.8056 13.386 10.875C12.4007 11.6111 11.2302 12.0004 9.99894 12.0004C8.7677 12.0004 7.59646 11.6117 6.61187 10.875C6.52255 10.8054 6.41532 10.7626 6.30264 10.7515C6.18995 10.7404 6.07643 10.7615 5.97526 10.8124C5.88066 10.8583 5.80127 10.9306 5.74655 11.0204C5.69183 11.1102 5.66408 11.2139 5.66661 11.3191C5.66661 11.6584 5.83793 11.9744 6.12391 12.1651C6.67453 12.5311 7.27515 12.8171 7.90644 13.0158C8.18308 13.1005 8.48706 13.1718 8.8077 13.2271C8.86792 13.238 8.92402 13.2651 8.96989 13.3056C9.01576 13.3462 9.04964 13.3985 9.06786 13.4569C9.08607 13.5153 9.08792 13.5776 9.07319 13.637C9.05847 13.6964 9.02774 13.7507 8.98435 13.7938L6.52655 16.1979C6.40256 16.3219 6.33323 16.4893 6.33323 16.6673C6.33323 16.8453 6.40256 17.0126 6.52855 17.1386C6.65545 17.26 6.82426 17.3277 6.99984 17.3277C7.17542 17.3277 7.34424 17.26 7.47114 17.1386L9.76029 14.7692C9.79116 14.7368 9.82831 14.7111 9.86945 14.6936C9.91059 14.676 9.95488 14.6671 9.99961 14.6672Z" fill="#C32428"/>
</svg>
