<svg width="20" height="20" viewBox="0 0 20 20" fill="none" xmlns="http://www.w3.org/2000/svg">
<path d="M14.589 5.95945C14.3622 5.77677 14.0567 5.77362 14 5.77362C13.5748 5.77992 13.0803 5.9437 10.1795 7.15C9.21889 7.55 7.26928 8.3878 4.38739 9.64449C3.78267 9.88701 3.49605 10.1327 3.45826 10.4445C3.38897 11.0083 3.96849 11.1909 4.53227 11.3673L4.74645 11.4366C5.17164 11.5752 5.9496 11.8083 6.38109 11.8177C6.76849 11.8177 7.19369 11.6728 7.64093 11.3673C9.17479 10.3311 10.1512 9.67913 10.7653 9.27283C10.274 9.74213 9.70078 10.2776 9.39842 10.5579C9.15275 10.7846 8.97952 10.9484 8.94172 10.9862C8.86613 11.065 8.79054 11.1374 8.7181 11.2098C8.39684 11.5185 8.09763 11.8083 8.13227 12.2146C8.16692 12.602 8.51968 12.876 8.78109 13.0492C9.18424 13.3138 9.5055 13.5343 9.82991 13.7547C10.1858 13.9972 10.5386 14.2398 10.9984 14.539C11.1118 14.6146 11.2189 14.6902 11.3228 14.7657C11.7228 15.0492 12.1323 15.3421 12.6457 15.3421C12.6866 15.3421 12.7275 15.339 12.7716 15.3358C13.1055 15.3043 13.5433 15.0587 13.7323 14.0634C14.0504 12.3657 14.7055 8.52323 14.8598 6.89488C14.8787 6.7122 14.8535 6.50433 14.8409 6.41929C14.8283 6.34685 14.7905 6.12323 14.589 5.95945ZM14.2362 6.83189C14.085 8.41929 13.4205 12.3091 13.115 13.9437C13.0142 14.4886 12.8441 14.6933 12.7181 14.7059C12.3779 14.7374 12.0756 14.5232 11.6913 14.2492C11.5811 14.1705 11.4646 14.0886 11.3449 14.0098C10.8882 13.7106 10.5386 13.4713 10.1858 13.2319C9.86141 13.0114 9.537 12.7909 9.1307 12.5232C8.79054 12.2996 8.76534 12.1799 8.76219 12.1547C8.75275 12.0508 8.97637 11.8335 9.1559 11.6602C9.23464 11.5846 9.31653 11.5059 9.39842 11.4209C9.43306 11.3862 9.59684 11.2319 9.82991 11.0177C12.0535 8.95158 12.1764 8.7689 12.2173 8.60197C12.2425 8.49173 12.2425 8.26811 12.0724 8.12008C11.9716 8.02874 11.8551 8.00669 11.7606 8.00669C11.685 8.00669 11.6252 8.02244 11.5874 8.02874C11.4898 8.05079 11.3984 8.07283 7.29133 10.8445C6.95117 11.0776 6.65196 11.2004 6.39999 11.1878C6.14802 11.1815 5.60314 11.0524 4.94802 10.8382L4.72755 10.7689C4.49763 10.6965 4.19212 10.602 4.10078 10.5232C4.14172 10.4791 4.26456 10.3752 4.63306 10.2303L4.64251 10.2272C7.5244 8.97047 9.47086 8.13268 10.4283 7.73583C12.9827 6.67441 13.685 6.41299 14.0189 6.40669C14.0787 6.39724 14.1669 6.42559 14.1984 6.45079C14.2079 6.46024 14.2173 6.47283 14.2268 6.52953C14.2299 6.58307 14.2457 6.7311 14.2362 6.83189Z" fill="#C32428"/>
<path d="M10 0C4.48504 0 0 4.48504 0 10C0 15.515 4.48504 20 10 20C15.515 20 20 15.515 20 10C20 4.48504 15.515 0 10 0ZM10 19.3701C4.83465 19.3701 0.629921 15.1654 0.629921 10C0.629921 4.83465 4.83465 0.629921 10 0.629921C15.1654 0.629921 19.3701 4.83465 19.3701 10C19.3701 15.1654 15.1654 19.3701 10 19.3701Z" fill="#C32428"/>
</svg>
