<svg width="20" height="20" viewBox="0 0 20 20" fill="none" xmlns="http://www.w3.org/2000/svg">
<path d="M12.9571 20H7.04286C1.44786 20 0 18.5521 0 12.9571V7.04286C0 1.44786 1.44786 0 7.04286 0H12.9564C18.5521 0 20 1.44786 20 7.04286V12.9571C20 18.5521 18.5521 20 12.9571 20ZM7.04286 0.714286C1.83786 0.714286 0.714286 1.83786 0.714286 7.04286V12.9571C0.714286 18.1621 1.83786 19.2857 7.04286 19.2857H12.9564C18.1614 19.2857 19.285 18.1621 19.285 12.9571V7.04286C19.2857 1.83786 18.1621 0.714286 12.9571 0.714286H7.04286Z" fill="#C32428"/>
<path d="M16.585 14.9109H15.0221C14.4436 14.9109 14.1536 14.5874 13.6714 14.0517C13.4814 13.8409 13.2486 13.5817 12.9393 13.2717C12.0864 12.4495 11.725 12.3667 11.5921 12.3667C11.5871 12.4017 11.5828 12.4574 11.5828 12.5445V13.9459C11.5828 14.7467 10.9943 14.9109 10.1093 14.9109C8.25498 14.9109 6.36355 13.7845 5.04927 11.8981C3.15641 9.24451 2.51855 7.08737 2.51855 6.51094C2.51855 6.00308 2.84427 5.71165 3.41141 5.71165H4.97427C5.65998 5.71165 5.86927 6.14951 6.01141 6.55951C6.71498 8.61022 7.75213 10.1381 8.18355 10.4431C8.18713 10.3967 8.18998 10.3352 8.18998 10.2524V7.95094C8.1607 7.43022 7.98784 7.21594 7.83498 7.02737C7.70998 6.87308 7.56855 6.69808 7.56855 6.42808C7.56855 6.08379 7.85713 5.71165 8.32355 5.71165H10.7793C11.1464 5.71165 11.5828 5.87308 11.5828 6.64308V9.73951C11.5828 9.75379 11.5836 9.76665 11.5843 9.7788C11.665 9.72308 11.78 9.61808 11.945 9.45379C13.0014 8.27165 13.78 6.3938 13.7878 6.37451C13.9743 5.9388 14.3228 5.71094 14.7986 5.71094H16.3614C16.6993 5.71094 16.9457 5.81237 17.0936 6.01094C17.1921 6.14308 17.2864 6.37808 17.1764 6.74522C16.975 7.67308 15.2214 10.1617 15.0214 10.4424C15.0064 10.4674 14.9457 10.5659 14.9378 10.5995C14.9378 10.5995 14.9528 10.6345 15.0121 10.7117C15.0843 10.8109 15.2621 10.9852 15.4343 11.1545C15.6471 11.3631 15.8878 11.5995 16.0793 11.8259C16.9221 12.7738 17.3243 13.3417 17.465 13.7788C17.5821 14.1831 17.4786 14.4374 17.37 14.5809C17.2593 14.7324 17.0321 14.9109 16.585 14.9109ZM11.635 11.6517C11.9578 11.6517 12.425 11.7838 13.4393 12.7617C13.765 13.0874 14.0064 13.3552 14.2028 13.5738C14.67 14.0945 14.7836 14.1967 15.0214 14.1967H16.5843C16.7321 14.1967 16.7921 14.1631 16.8 14.1538C16.8 14.1538 16.8178 14.1102 16.7828 13.9895C16.6514 13.5809 16.05 12.8688 15.5407 12.2952C15.3571 12.0781 15.1336 11.8595 14.935 11.6659C14.7143 11.4502 14.5407 11.2795 14.4414 11.1409C14.0857 10.6831 14.225 10.3752 14.4286 10.0481C14.9578 9.30094 16.335 7.25594 16.4857 6.56808C16.5064 6.49522 16.5114 6.45522 16.5114 6.43594C16.4986 6.43737 16.4507 6.42665 16.3614 6.42665H14.7986C14.585 6.42665 14.5078 6.50951 14.4471 6.65165C14.4157 6.72808 13.6171 8.65594 12.4643 9.94522C12.0971 10.3131 11.8378 10.5445 11.4693 10.5445C11.18 10.5445 10.8686 10.2924 10.8686 9.74022V6.64379C10.8686 6.50665 10.8521 6.4488 10.8443 6.4288C10.8364 6.43165 10.8171 6.42737 10.7793 6.42665H8.32355C8.28856 6.45379 8.34998 6.52951 8.3907 6.57951C8.57856 6.81165 8.86141 7.16237 8.90427 7.93237L8.90498 10.2538C8.90498 10.5388 8.90498 11.2074 8.25784 11.2074C7.34141 11.2074 5.97284 8.6438 5.33713 6.79379C5.20998 6.42737 5.1507 6.42737 4.97498 6.42737H3.41213C3.27213 6.42737 3.2307 6.45451 3.2307 6.45451C3.23355 6.76237 3.67641 8.74308 5.63355 11.4874C6.81641 13.1852 8.48855 14.1974 10.11 14.1974C10.8693 14.1974 10.8693 14.0924 10.8693 13.9467V12.5452C10.8693 12.1031 10.96 11.6517 11.635 11.6517Z" fill="#C32428"/>
</svg>
